<svg width="186" height="145" viewBox="0 0 186 145" fill="none" xmlns="http://www.w3.org/2000/svg">
<path d="M183.373 23.7384C183.373 23.1339 183.441 22.5354 183.573 21.9771C183.705 21.4188 183.899 20.9118 184.143 20.4851C184.387 20.0584 184.677 19.7205 184.995 19.4906C185.314 19.2608 185.655 19.1436 186 19.1457V14.2512C185.647 14.2773 185.295 14.1779 184.965 13.9591C184.634 13.7403 184.333 13.4065 184.078 12.9778C183.823 12.5492 183.62 12.0345 183.482 11.4647C183.343 10.895 183.272 10.282 183.272 9.66259C183.272 9.04318 183.343 8.43016 183.482 7.86043C183.62 7.2907 183.823 6.77602 184.078 6.34736C184.333 5.91869 184.634 5.5849 184.965 5.36607C185.295 5.14724 185.647 5.04788 186 5.07398V0H0V5.09845C0.674626 5.14836 1.31217 5.65363 1.77946 6.5087C2.24675 7.36376 2.50764 8.50251 2.50764 9.68706C2.50764 10.8716 2.24675 12.0104 1.77946 12.8654C1.31217 13.7205 0.674626 14.2258 0 14.2757V19.1702C0.674626 19.2201 1.31217 19.7254 1.77946 20.5804C2.24675 21.4355 2.50764 22.5742 2.50764 23.7588C2.50764 24.9433 2.24675 26.0821 1.77946 26.9372C1.31217 27.7922 0.674626 28.2975 0 28.3474V33.2419C0.674626 33.2918 1.31217 33.7971 1.77946 34.6522C2.24675 35.5072 2.50764 36.646 2.50764 37.8305C2.50764 39.0151 2.24675 40.1538 1.77946 41.0089C1.31217 41.864 0.674626 42.3692 0 42.4191V47.3136C0.674626 47.3636 1.31217 47.8688 1.77946 48.7239C2.24675 49.579 2.50764 50.7177 2.50764 51.9022C2.50764 53.0868 2.24675 54.2255 1.77946 55.0806C1.31217 55.9357 0.674626 56.4409 0 56.4909V61.3854C0.674626 61.4353 1.31217 61.9405 1.77946 62.7956C2.24675 63.6507 2.50764 64.7894 2.50764 65.974C2.50764 67.1585 2.24675 68.2973 1.77946 69.1523C1.31217 70.0074 0.674626 70.5127 0 70.5626V75.4571C0.674626 75.507 1.31217 76.0123 1.77946 76.8673C2.24675 77.7224 2.50764 78.8612 2.50764 80.0457C2.50764 81.2303 2.24675 82.369 1.77946 83.2241C1.31217 84.0791 0.674626 84.5844 0 84.6343V89.5288C0.674626 89.5787 1.31217 90.084 1.77946 90.9391C2.24675 91.7941 2.50764 92.9329 2.50764 94.1174C2.50764 95.302 2.24675 96.4407 1.77946 97.2958C1.31217 98.1509 0.674626 98.6561 0 98.706V103.601C0.674626 103.65 1.31217 104.156 1.77946 105.011C2.24675 105.866 2.50764 107.005 2.50764 108.189C2.50764 109.374 2.24675 110.512 1.77946 111.368C1.31217 112.223 0.674626 112.728 0 112.778V117.672C0.674626 117.722 1.31217 118.227 1.77946 119.083C2.24675 119.938 2.50764 121.076 2.50764 122.261C2.50764 123.445 2.24675 124.584 1.77946 125.439C1.31217 126.294 0.674626 126.8 0 126.85V131.744C0.674626 131.794 1.31217 132.299 1.77946 133.154C2.24675 134.009 2.50764 135.148 2.50764 136.333C2.50764 137.517 2.24675 138.656 1.77946 139.511C1.31217 140.366 0.674626 140.871 0 140.921V145H186V140.921C185.647 140.947 185.295 140.848 184.965 140.629C184.634 140.41 184.333 140.077 184.078 139.648C183.823 139.219 183.62 138.705 183.482 138.135C183.343 137.565 183.272 136.952 183.272 136.333C183.272 135.713 183.343 135.1 183.482 134.53C183.62 133.961 183.823 133.446 184.078 133.017C184.333 132.589 184.634 132.255 184.965 132.036C185.295 131.817 185.647 131.718 186 131.744V126.85C185.291 126.85 184.611 126.355 184.109 125.476C183.608 124.596 183.326 123.403 183.326 122.159C183.326 120.915 183.608 119.722 184.109 118.842C184.611 117.963 185.291 117.468 186 117.468V112.574C185.647 112.6 185.295 112.501 184.965 112.282C184.634 112.063 184.333 111.729 184.078 111.3C183.823 110.872 183.62 110.357 183.482 109.787C183.343 109.218 183.272 108.605 183.272 107.985C183.272 107.366 183.343 106.753 183.482 106.183C183.62 105.613 183.823 105.099 184.078 104.67C184.333 104.241 184.634 103.908 184.965 103.689C185.295 103.47 185.647 103.371 186 103.397V98.5021C185.647 98.5282 185.295 98.4288 184.965 98.21C184.634 97.9912 184.333 97.6574 184.078 97.2287C183.823 96.8001 183.62 96.2854 183.482 95.7157C183.343 95.1459 183.272 94.5329 183.272 93.9135C183.272 93.2941 183.343 92.6811 183.482 92.1113C183.62 91.5416 183.823 91.0269 184.078 90.5983C184.333 90.1696 184.634 89.8358 184.965 89.617C185.295 89.3981 185.647 89.2988 186 89.3249V84.4304C185.647 84.4565 185.295 84.3571 184.965 84.1383C184.634 83.9195 184.333 83.5857 184.078 83.157C183.823 82.7283 183.62 82.2137 183.482 81.6439C183.343 81.0742 183.272 80.4612 183.272 79.8418C183.272 79.2224 183.343 78.6093 183.482 78.0396C183.62 77.4699 183.823 76.9552 184.078 76.5265C184.333 76.0979 184.634 75.7641 184.965 75.5453C185.295 75.3264 185.647 75.2271 186 75.2532V70.3587C185.647 70.3848 185.295 70.2854 184.965 70.0666C184.634 69.8477 184.333 69.5139 184.078 69.0853C183.823 68.6566 183.62 68.1419 183.482 67.5722C183.343 67.0025 183.272 66.3895 183.272 65.77C183.272 65.1506 183.343 64.5376 183.482 63.9679C183.62 63.3982 183.823 62.8835 184.078 62.4548C184.333 62.0261 184.634 61.6924 184.965 61.4735C185.295 61.2547 185.647 61.1553 186 61.1814V56.2869C185.647 56.313 185.295 56.2137 184.965 55.9948C184.634 55.776 184.333 55.4422 184.078 55.0135C183.823 54.5849 183.62 54.0702 183.482 53.5005C183.343 52.9307 183.272 52.3177 183.272 51.6983C183.272 51.0789 183.343 50.4659 183.482 49.8962C183.62 49.3264 183.823 48.8117 184.078 48.3831C184.333 47.9544 184.634 47.6206 184.965 47.4018C185.295 47.183 185.647 47.0836 186 47.1097V42.2152C185.647 42.2413 185.295 42.1419 184.965 41.9231C184.634 41.7043 184.333 41.3705 184.078 40.9418C183.823 40.5131 183.62 39.9985 183.482 39.4287C183.343 38.859 183.272 38.246 183.272 37.6266C183.272 37.0072 183.343 36.3942 183.482 35.8244C183.62 35.2547 183.823 34.74 184.078 34.3113C184.333 33.8827 184.634 33.5489 184.965 33.3301C185.295 33.1112 185.647 33.0119 186 33.038V28.1435C185.322 28.1487 184.67 27.6925 184.18 26.871C183.69 26.0494 183.4 24.9265 183.373 23.7384Z" fill="#4770B7"/>
</svg>
