<svg width="67" height="67" viewBox="0 0 67 67" fill="none" xmlns="http://www.w3.org/2000/svg">
<path d="M17.2623 62.5254H13.9681C13.2518 62.5254 12.6711 63.1061 12.6711 63.8223C12.6711 64.5386 13.2518 65.1193 13.9681 65.1193H17.2623C17.9786 65.1193 18.5593 64.5386 18.5593 63.8223C18.5593 63.1061 17.9786 62.5254 17.2623 62.5254Z" fill="white"/>
<path d="M25.3812 62.5254H22.087C21.3707 62.5254 20.79 63.1061 20.79 63.8223C20.79 64.5386 21.3707 65.1193 22.087 65.1193H25.3812C26.0974 65.1193 26.6782 64.5386 26.6782 63.8223C26.6782 63.1061 26.0974 62.5254 25.3812 62.5254Z" fill="white"/>
<path d="M33.5001 62.5254H30.2059C29.4896 62.5254 28.9089 63.1061 28.9089 63.8223C28.9089 64.5386 29.4896 65.1193 30.2059 65.1193H33.5001C34.2163 65.1193 34.797 64.5386 34.797 63.8223C34.797 63.1061 34.2163 62.5254 33.5001 62.5254Z" fill="white"/>
<path d="M41.6188 62.5254H38.3245C37.6083 62.5254 37.0276 63.1061 37.0276 63.8223C37.0276 64.5386 37.6083 65.1193 38.3245 65.1193H41.6188C42.335 65.1193 42.9157 64.5386 42.9157 63.8223C42.9157 63.1061 42.335 62.5254 41.6188 62.5254Z" fill="white"/>
<path d="M49.7635 62.5254H49.7376H46.4693C45.7531 62.5254 45.1724 63.1061 45.1724 63.8223C45.1724 64.5386 45.7531 65.1193 46.4693 65.1193H49.7635C50.4798 65.1193 51.0605 64.5386 51.0605 63.8223C51.0605 63.1061 50.4798 62.5254 49.7635 62.5254Z" fill="white"/>
<path d="M64.03 1.88037H2.97C1.33261 1.8875 0.00713318 3.21298 0 4.85037V16.445C0.00713318 18.0824 1.33261 19.4079 2.97 19.415H8.58575V63.8223C8.58575 64.5385 9.16646 65.1192 9.88269 65.1192C10.5989 65.1192 11.1796 64.5385 11.1796 63.8223V14.9535C11.1796 13.2631 12.55 11.8928 14.2404 11.8928H53.6804C53.0887 12.804 52.7734 13.867 52.7725 14.9535L52.6947 63.8223C52.6947 64.5385 53.2754 65.1192 53.9917 65.1192C54.7079 65.1192 55.2886 64.5385 55.2886 63.8223L55.3664 19.428H64.03C65.6674 19.4209 66.9929 18.0954 67 16.458V4.85037C66.9929 3.21298 65.6674 1.8875 64.03 1.88037ZM64.4061 4.85037V16.458C64.4061 16.6657 64.2377 16.8341 64.03 16.8341H55.3664V14.9535C55.3664 13.2631 56.7368 11.8928 58.4272 11.8928H59.7242C60.4404 11.8928 61.0211 11.3121 61.0211 10.5958C61.0211 9.87958 60.4404 9.29888 59.7242 9.29888H6.95161C6.23537 9.29888 5.65466 9.87958 5.65466 10.5958C5.65466 11.3121 6.23537 11.8928 6.95161 11.8928H9.54549C8.94792 12.8019 8.6279 13.8656 8.62466 14.9535V16.8341H2.97C2.76232 16.8341 2.59388 16.6657 2.59388 16.458V4.85037C2.59388 4.64269 2.76232 4.47425 2.97 4.47425H64.03C64.2377 4.47425 64.4061 4.64269 64.4061 4.85037Z" fill="white"/>
<path d="M32.7088 23.7729H18.1312C17.4149 23.7729 16.8342 24.3537 16.8342 25.0699C16.8342 25.7861 17.4149 26.3668 18.1312 26.3668H32.7088C33.425 26.3668 34.0057 25.7861 34.0057 25.0699C34.0057 24.3537 33.425 23.7729 32.7088 23.7729Z" fill="white"/>
<path d="M45.5615 23.7729H38.3245C37.6083 23.7729 37.0276 24.3537 37.0276 25.0699C37.0276 25.7861 37.6083 26.3668 38.3245 26.3668H45.5615C46.2777 26.3668 46.8584 25.7861 46.8584 25.0699C46.8584 24.3537 46.2777 23.7729 45.5615 23.7729Z" fill="white"/>
<path d="M32.7088 31.334H18.1312C17.4149 31.334 16.8342 31.9147 16.8342 32.6309C16.8342 33.3472 17.4149 33.9279 18.1312 33.9279H32.7088C33.425 33.9279 34.0057 33.3472 34.0057 32.6309C34.0057 31.9147 33.425 31.334 32.7088 31.334Z" fill="white"/>
<path d="M45.5615 31.334H38.3245C37.6083 31.334 37.0276 31.9147 37.0276 32.6309C37.0276 33.3472 37.6083 33.9279 38.3245 33.9279H45.5615C46.2777 33.9279 46.8584 33.3472 46.8584 32.6309C46.8584 31.9147 46.2777 31.334 45.5615 31.334Z" fill="white"/>
<path d="M32.7088 38.9082H18.1312C17.4149 38.9082 16.8342 39.4889 16.8342 40.2051C16.8342 40.9214 17.4149 41.5021 18.1312 41.5021H32.7088C33.425 41.5021 34.0057 40.9214 34.0057 40.2051C34.0057 39.4889 33.425 38.9082 32.7088 38.9082Z" fill="white"/>
<path d="M45.5615 38.9082H38.3245C37.6083 38.9082 37.0276 39.4889 37.0276 40.2051C37.0276 40.9214 37.6083 41.5021 38.3245 41.5021H45.5615C46.2777 41.5021 46.8584 40.9214 46.8584 40.2051C46.8584 39.4889 46.2777 38.9082 45.5615 38.9082Z" fill="white"/>
</svg>
