<svg width="20" height="20" viewBox="0 0 20 20" fill="none" xmlns="http://www.w3.org/2000/svg">
<path d="M16.451 15.3333V3.36427C16.4505 3.00257 16.3024 2.65581 16.039 2.40005C15.7756 2.14429 15.4184 2.00042 15.0459 2H7.41989C7.04738 2.00042 6.69026 2.14429 6.42686 2.40005C6.16346 2.65581 6.01529 3.00257 6.01485 3.36427V3.6H5.19095C4.97244 3.6 4.76287 3.68429 4.60836 3.83431C4.45385 3.98434 4.36705 4.18783 4.36705 4.4V6.75147L2.11312 12.5211C2.02292 12.7517 1.98606 12.9987 2.00514 13.2447C2.02422 13.4907 2.09878 13.7296 2.22354 13.9445C2.3483 14.1594 2.5202 14.345 2.72706 14.4883C2.93393 14.6315 3.1707 14.7287 3.42059 14.7732C3.67049 14.8177 3.9274 14.8082 4.17312 14.7456C4.41885 14.6829 4.64737 14.5685 4.8425 14.4105C5.03763 14.2526 5.19459 14.0549 5.30227 13.8314C5.40995 13.608 5.4657 13.3643 5.46559 13.1176V11.0667C5.46629 10.9018 5.51944 10.7412 5.61776 10.6067C5.71608 10.4723 5.85477 10.3707 6.01485 10.3157V15.3333C5.86918 15.3333 5.72947 15.3895 5.62646 15.4895C5.52345 15.5896 5.46559 15.7252 5.46559 15.8667V17.4667C5.46559 17.6081 5.52345 17.7438 5.62646 17.8438C5.72947 17.9438 5.86918 18 6.01485 18H16.451C16.5967 18 16.7364 17.9438 16.8394 17.8438C16.9424 17.7438 17.0002 17.6081 17.0002 17.4667V15.8667C17.0002 15.7252 16.9424 15.5896 16.8394 15.4895C16.7364 15.3895 16.5967 15.3333 16.451 15.3333ZM4.91632 4.4C4.91632 4.32928 4.94525 4.26145 4.99675 4.21144C5.04826 4.16143 5.11811 4.13333 5.19095 4.13333H6.01485V7.86667H5.19095C5.11811 7.86667 5.04826 7.83857 4.99675 7.78856C4.94525 7.73855 4.91632 7.67072 4.91632 7.6V4.4ZM4.91632 11.0667V13.1176C4.91631 13.286 4.87817 13.4524 4.8046 13.605C4.73102 13.7575 4.6238 13.8925 4.49054 14.0003C4.35728 14.1081 4.20123 14.1862 4.03344 14.229C3.86565 14.2718 3.69023 14.2782 3.5196 14.2478C3.34897 14.2175 3.1873 14.1511 3.04604 14.0533C2.90477 13.9555 2.78738 13.8288 2.70216 13.6821C2.61694 13.5354 2.56598 13.3723 2.55289 13.2043C2.5398 13.0363 2.5649 12.8676 2.62641 12.7101L4.47278 7.984C4.54309 8.10948 4.64685 8.21431 4.7732 8.28749C4.89954 8.36068 5.04383 8.39954 5.19095 8.4H6.01485V9.76C5.70491 9.82189 5.42641 9.98565 5.2263 10.2237C5.02619 10.4617 4.91672 10.7594 4.91632 11.0667ZM6.56412 3.36427C6.56434 3.14395 6.65457 2.93273 6.81501 2.77694C6.97545 2.62116 7.19299 2.53355 7.41989 2.53333H15.0459C15.2728 2.53355 15.4904 2.62116 15.6508 2.77694C15.8113 2.93273 15.9015 3.14395 15.9017 3.36427V15.3333H6.56412V3.36427ZM6.01485 17.4667V15.8667H16.451V17.4667H6.01485Z" fill="white"/>
<path d="M14.4669 3H7.53358C7.39213 3 7.25647 3.05545 7.15645 3.15415C7.05643 3.25286 7.00024 3.38673 7.00024 3.52632V7.47368C7.00024 7.61327 7.05643 7.74714 7.15645 7.84585C7.25647 7.94455 7.39213 8 7.53358 8H14.4669C14.6084 8 14.744 7.94455 14.844 7.84585C14.9441 7.74714 15.0002 7.61327 15.0002 7.47368V3.52632C15.0002 3.38673 14.9441 3.25286 14.844 3.15415C14.744 3.05545 14.6084 3 14.4669 3ZM7.53358 7.47368V3.52632H14.4669V7.47368H7.53358Z" fill="white"/>
<path d="M10.6669 10C10.5785 10 10.4937 10.0211 10.4312 10.0586C10.3687 10.0961 10.3336 10.147 10.3336 10.2V10.8H9.66691V10.2C9.66691 10.147 9.63179 10.0961 9.56928 10.0586C9.50677 10.0211 9.42198 10 9.33358 10C9.24517 10 9.16039 10.0211 9.09787 10.0586C9.03536 10.0961 9.00024 10.147 9.00024 10.2V11.8C9.00024 11.853 9.03536 11.9039 9.09787 11.9414C9.16039 11.9789 9.24517 12 9.33358 12C9.42198 12 9.50677 11.9789 9.56928 11.9414C9.63179 11.9039 9.66691 11.853 9.66691 11.8V11.2H10.3336V11.8C10.3336 11.853 10.3687 11.9039 10.4312 11.9414C10.4937 11.9789 10.5785 12 10.6669 12C10.7553 12 10.8401 11.9789 10.9026 11.9414C10.9651 11.9039 11.0002 11.853 11.0002 11.8V10.2C11.0002 10.147 10.9651 10.0961 10.9026 10.0586C10.8401 10.0211 10.7553 10 10.6669 10Z" fill="white"/>
<path d="M12.4983 11C12.0052 11 11.8476 11.8889 12.1662 11.8889C12.2103 11.8889 12.2525 11.8655 12.2836 11.8238C12.3148 11.7821 12.3323 11.7256 12.3323 11.6667C12.3323 11.6077 12.3497 11.5512 12.3809 11.5095C12.412 11.4679 12.4542 11.4444 12.4983 11.4444C12.5357 11.4484 12.5713 11.4675 12.6004 11.4991C12.6296 11.5308 12.6508 11.5736 12.6614 11.6218C12.6719 11.67 12.6713 11.7213 12.6595 11.769C12.6478 11.8167 12.6255 11.8585 12.5956 11.8889L12.0489 12.6207C12.0256 12.6517 12.0098 12.6913 12.0034 12.7344C11.997 12.7775 12.0003 12.8222 12.0129 12.8628C12.0254 12.9034 12.0467 12.9381 12.074 12.9625C12.1013 12.987 12.1334 13 12.1662 13H12.8303C12.8744 13 12.9166 12.9766 12.9477 12.9349C12.9789 12.8932 12.9963 12.8367 12.9963 12.7778C12.9963 12.7188 12.9789 12.6623 12.9477 12.6206C12.9166 12.579 12.8744 12.5556 12.8303 12.5556H12.567L12.8303 12.2033C12.9068 12.1108 12.9608 11.9897 12.9853 11.8556C13.0099 11.7216 13.004 11.5808 12.9683 11.4514C12.9325 11.3219 12.8687 11.2098 12.7849 11.1293C12.7012 11.0489 12.6013 11.0038 12.4983 11Z" fill="white"/>
<path d="M8.40116 6C8.5075 5.99998 8.60949 5.95772 8.68467 5.88251L9.88768 4.67955C9.96072 4.60393 10.0011 4.50264 10.0002 4.3975C9.99932 4.29236 9.95714 4.19179 9.88279 4.11745C9.80844 4.0431 9.70787 4.00093 9.60273 4.00002C9.49758 3.9991 9.39629 4.03952 9.32066 4.11256L8.11765 5.31552C8.06159 5.3716 8.02341 5.44304 8.00794 5.52081C7.99248 5.59858 8.00042 5.67919 8.03076 5.75245C8.06111 5.82571 8.11249 5.88833 8.17842 5.93239C8.24435 5.97646 8.32186 5.99998 8.40116 6Z" fill="white"/>
<path d="M10.537 4.07673L8.07697 6.53677C8.02718 6.58832 7.99963 6.65737 8.00025 6.72904C8.00088 6.80071 8.02962 6.86926 8.0803 6.91994C8.13098 6.97062 8.19954 6.99937 8.27121 6.99999C8.34288 7.00061 8.41192 6.97306 8.46347 6.92327L10.9235 4.46323C10.9733 4.41168 11.0009 4.34263 11.0002 4.27096C10.9996 4.19929 10.9709 4.13074 10.9202 4.08006C10.8695 4.02938 10.801 4.00063 10.7293 4.00001C10.6576 3.99939 10.5886 4.02694 10.537 4.07673Z" fill="white"/>
</svg>
