<svg width="20" height="20" viewBox="0 0 20 20" fill="none" xmlns="http://www.w3.org/2000/svg">
<path d="M2.75412 13.7054H5.74353C5.85294 13.7054 5.93765 13.6124 5.93765 13.5008V11.9195C5.93765 11.8041 5.84941 11.7148 5.74353 11.7148H2.75412C2.64471 11.7148 2.56 11.8078 2.56 11.9195V13.5008C2.56 13.6124 2.64471 13.7054 2.75412 13.7054ZM2.95176 12.1241H5.54941V13.2924H2.95176V12.1241ZM2.75412 16.1648H3.66118C3.77059 16.1648 3.85529 16.0718 3.85529 15.9602V14.3789C3.85529 14.2635 3.76706 14.1742 3.66118 14.1742H2.75412C2.64471 14.1742 2.56 14.2672 2.56 14.3789V15.9602C2.56 16.0718 2.64471 16.1648 2.75412 16.1648ZM2.95176 14.5872H3.46706V15.7518H2.95176V14.5872ZM5.74353 14.5872H4.35647C4.09882 14.5872 4.10235 14.1742 4.35647 14.1742H5.74353C5.99765 14.1742 5.99765 14.5835 5.74353 14.5872ZM4.50471 14.7993C4.77294 14.7956 4.77647 15.3165 4.50471 15.3165C4.23647 15.3165 4.23294 14.7956 4.50471 14.7993ZM5.05176 14.7993C5.32 14.7956 5.32353 15.3165 5.05176 15.3165C4.78353 15.3165 4.77647 14.7956 5.05176 14.7993ZM5.59529 14.7993C5.86353 14.7956 5.86706 15.3165 5.59529 15.3165C5.32706 15.3165 5.32353 14.7956 5.59529 14.7993ZM4.50471 15.9378C4.23647 15.9416 4.23294 15.4207 4.50471 15.4207C4.77294 15.4207 4.77647 15.9416 4.50471 15.9378ZM5.05176 15.9378C4.78353 15.9416 4.78 15.4207 5.05176 15.4207C5.31647 15.4207 5.32353 15.9416 5.05176 15.9378ZM5.59529 15.9378C5.32706 15.9416 5.32353 15.4207 5.59529 15.4207C5.86353 15.4207 5.86706 15.9416 5.59529 15.9378ZM18.6647 11.2423C18.8482 11.2423 19 11.0823 19 10.8888V10.0665C19 9.87306 18.8482 9.71307 18.6647 9.71307H12.8376C12.6541 9.71307 12.5024 9.87306 12.5024 10.0665V10.8888C12.5024 11.0823 12.6541 11.2423 12.8376 11.2423H13.0318V11.7334C12.4212 11.8599 11.9518 12.5669 11.9518 13.4152V15.2011C11.4894 15.4207 11.1753 16.0048 11.1753 16.6783C11.1859 16.9908 11.1153 17.5229 11.3306 17.7759C11.6976 18.2893 12.3647 17.9061 12.3435 17.2699V15.5248H12.3541H12.4988V15.9602C12.4988 16.0755 12.5871 16.1648 12.6929 16.1648H13.0282V18.5982H10.6812V11.4804H11.3588C11.6059 11.4804 11.8035 11.2683 11.8035 11.0116V7.59969C11.8035 7.33924 11.6024 7.13088 11.3588 7.13088H10.6812V4.57846H17.7294C17.8388 4.57846 17.9235 4.48545 17.9235 4.37382V3.80083H18.7282C18.8376 3.80083 18.9224 3.70781 18.9224 3.59619V2.20464C18.9224 2.0893 18.8341 2 18.7282 2H1.26824C1.15882 2 1.07412 2.09302 1.07412 2.20464V3.59247C1.07412 3.70781 1.16235 3.79711 1.26824 3.79711H2.07294V4.3701C2.07294 4.48545 2.16118 4.57474 2.26706 4.57474H9.31176V7.11972H8.63412C8.38706 7.11972 8.18941 7.3318 8.18941 7.58853V11.0004C8.18941 11.2609 8.39059 11.4692 8.63412 11.4692H9.31176V18.587H6.96471V16.1536H7.3C7.40941 16.1536 7.49412 16.0606 7.49412 15.949V15.5137H7.64235H7.65294V17.2587C7.63529 17.8949 8.29882 18.2782 8.66588 17.7647C8.88118 17.5154 8.81059 16.9796 8.82118 16.6671C8.82118 15.9937 8.50706 15.4095 8.04471 15.19V13.404C8.04471 12.552 7.57529 11.8488 6.96471 11.7223V11.2311H7.15882C7.34235 11.2311 7.49412 11.0711 7.49412 10.8777V10.0554C7.49412 9.8619 7.34235 9.7019 7.15882 9.7019H1.33529C1.15176 9.7019 1 9.8619 1 10.0554V10.8777C1 11.0711 1.15176 11.2311 1.33529 11.2311H1.52941V18.587H1.19412C0.943529 18.5907 0.929412 18.9963 1.19412 19H18.8024C19.0529 18.9963 19.0671 18.5907 18.8024 18.587H18.4706V11.2423H18.6647ZM11.9553 17.2699C11.9271 17.7498 11.5706 17.6643 11.5706 17.2699V16.682C11.5706 16.269 11.7224 15.8932 11.9553 15.6886V17.2699ZM8.04471 15.6886C8.27765 15.8932 8.42941 16.2653 8.42941 16.682V17.2699C8.42941 17.4075 8.36941 17.5898 8.23529 17.6047C8.14353 17.6047 8.04118 17.4633 8.04118 17.2699V15.6886H8.04471ZM7.10588 15.3165V15.7555H6.96471V14.8849H7.10588V15.3165ZM7.65294 13.4152V15.1081H7.49412V14.6728C7.49412 14.5575 7.40588 14.4682 7.3 14.4682H6.96471V12.1576C7.36 12.2878 7.65294 12.805 7.65294 13.4152ZM1.39176 10.8293V10.1261H7.10588V10.8293H1.39176ZM6.57294 18.5982H1.92118V17.8131H6.57294V18.5982ZM6.57294 11.9157V17.4001H1.92118V11.2423H6.57294V11.9157ZM1.46588 3.38783V2.413H18.5376V3.38783H1.46588ZM2.46471 4.16546V3.80083H17.5353V4.16546C13.5365 4.16546 6.46353 4.16546 2.46471 4.16546ZM10.2929 4.57846V7.12344H9.70353V4.57846H10.2929ZM8.63765 11.0674C8.60588 11.0674 8.58471 11.0414 8.58471 11.0116V7.59969C8.58471 7.56621 8.60941 7.54388 8.63765 7.54388H11.3624C11.3941 7.54388 11.4153 7.56993 11.4153 7.59969V11.0116C11.4153 11.0414 11.3906 11.0674 11.3624 11.0674H8.63765ZM10.2929 18.5982H9.70353V11.4804H10.2929V18.5982ZM13.0353 15.7518H12.8941C12.8941 15.5323 12.8941 15.097 12.8941 14.8812H13.0353V15.7518ZM13.0353 14.4682H12.7C12.5906 14.4682 12.5059 14.5612 12.5059 14.6728V15.1081H12.3506V13.4152C12.3506 12.8013 12.6471 12.2878 13.0388 12.1576V14.4682H13.0353ZM18.0788 18.5982H13.4271V17.8131H18.0788V18.5982ZM18.0788 17.4001H13.4271C13.4271 17.0689 13.4271 11.3167 13.4271 11.2423H18.0788V17.4001ZM12.8941 10.8293V10.1261H18.6082V10.8293H12.8941ZM14.2565 13.7054H17.2459C17.3553 13.7054 17.44 13.6124 17.44 13.5008V11.9195C17.44 11.8041 17.3518 11.7148 17.2459 11.7148H14.2565C14.1471 11.7148 14.0624 11.8078 14.0624 11.9195V13.5008C14.0624 13.6124 14.1471 13.7054 14.2565 13.7054ZM14.4541 12.1241H17.0518V13.2924H14.4541V12.1241ZM17.2459 14.1742H16.3388C16.2294 14.1742 16.1447 14.2672 16.1447 14.3789V15.9602C16.1447 16.0755 16.2329 16.1648 16.3388 16.1648H17.2459C17.3553 16.1648 17.44 16.0718 17.44 15.9602V14.3789C17.44 14.2672 17.3553 14.1742 17.2459 14.1742ZM17.0482 15.7518H16.5329V14.5835H17.0482V15.7518ZM15.6435 14.5872H14.2565C13.9988 14.5872 14.0024 14.1742 14.2565 14.1742H15.6435C15.8976 14.1742 15.8976 14.5835 15.6435 14.5872ZM15.4953 14.7993C15.7635 14.7956 15.7671 15.3165 15.4953 15.3165C15.2271 15.3165 15.2235 14.7956 15.4953 14.7993ZM14.9482 14.7993C15.2165 14.7956 15.22 15.3165 14.9482 15.3165C14.6835 15.3165 14.6765 14.7956 14.9482 14.7993ZM14.4047 14.7993C14.6729 14.7956 14.6765 15.3165 14.4047 15.3165C14.1365 15.3165 14.1329 14.7956 14.4047 14.7993ZM15.4953 15.9378C15.2271 15.9416 15.2235 15.4207 15.4953 15.4207C15.7635 15.4207 15.7671 15.9416 15.4953 15.9378ZM14.9482 15.9378C14.68 15.9416 14.6765 15.4207 14.9482 15.4207C15.2165 15.4207 15.2235 15.9416 14.9482 15.9378ZM14.4047 15.9378C14.1365 15.9416 14.1329 15.4207 14.4047 15.4207C14.6729 15.4207 14.6765 15.9416 14.4047 15.9378ZM10.7624 8.46662H9.23765C9.12824 8.46662 9.04353 8.37361 9.04353 8.26198C9.04353 8.15036 9.13176 8.05734 9.23765 8.05734H10.7624C11.02 8.05362 11.02 8.46662 10.7624 8.46662ZM10.7624 9.50843H9.23765C9.12824 9.50843 9.04353 9.41541 9.04353 9.30379C9.04353 9.18844 9.13176 9.09915 9.23765 9.09915H10.7624C11.02 9.09915 11.02 9.50843 10.7624 9.50843ZM10.7624 10.554H9.23765C9.12824 10.554 9.04353 10.4609 9.04353 10.3493C9.04353 10.234 9.13176 10.1447 9.23765 10.1447H10.7624C11.02 10.141 11.02 10.5502 10.7624 10.554Z" fill="#EC2027"/>
</svg>
