<svg width="20" height="20" viewBox="0 0 20 20" fill="none" xmlns="http://www.w3.org/2000/svg">
<path d="M9.96799 17.5C8.05549 17.5 6.38871 16.8781 4.96768 15.6344C3.54664 14.3919 2.72408 12.8263 2.5 10.9375H3.45186C3.70795 12.55 4.44577 13.8906 5.66533 14.9594C6.88614 16.0281 8.32036 16.5625 9.96799 16.5625C11.8039 16.5625 13.3612 15.9259 14.6397 14.6528C15.9183 13.3797 16.5579 11.8287 16.5585 10C16.5585 8.17188 15.9189 6.62094 14.6397 5.34719C13.3605 4.07344 11.8033 3.43687 9.96799 3.4375C8.99385 3.4375 8.07808 3.6425 7.22069 4.0525C6.36392 4.4625 5.60758 5.02688 4.95167 5.74563H7.28753V6.68313H3.37748V2.78875H4.31898V5.0275C5.04707 4.23188 5.90008 3.61187 6.87798 3.1675C7.85589 2.7225 8.88589 2.5 9.96799 2.5C11.0118 2.5 11.9903 2.69562 12.9036 3.08687C13.8168 3.47812 14.6146 4.01344 15.2969 4.69281C15.9792 5.37219 16.5171 6.16687 16.9106 7.07687C17.3035 7.98625 17.5 8.96063 17.5 10C17.5 11.0394 17.3035 12.0138 16.9106 12.9231C16.5177 13.8325 15.9798 14.6272 15.2969 15.3072C14.6146 15.9866 13.8168 16.5219 12.9036 16.9131C11.9903 17.3044 11.0118 17.5 9.96799 17.5ZM12.9836 13.6131L9.5509 10.195V5.3125H10.4924V9.805L13.6502 12.9494L12.9836 13.6131Z" fill="#EC2027"/>
</svg>
